<svg xmlns="http://www.w3.org/2000/svg" width="360" height="64" viewBox="0 0 360 64" role="img" aria-labelledby="title desc">
  <title id="title">Systemy &amp; Wynik SystemPilot</title>
  <desc id="desc">Logo marki Systemy &amp; Wynik SystemPilot</desc>
  <defs>
    <linearGradient id="ring" x1="0%" y1="0%" x2="100%" y2="100%">
      <stop offset="0%" stop-color="#1ecbff"/>
      <stop offset="100%" stop-color="#3179ff"/>
    </linearGradient>
    <linearGradient id="arrow" x1="0%" y1="0%" x2="100%" y2="100%">
      <stop offset="0%" stop-color="#6fe5ff"/>
      <stop offset="100%" stop-color="#a7ffbf"/>
    </linearGradient>
    <linearGradient id="line2" x1="0%" y1="0%" x2="100%" y2="0%">
      <stop offset="0%" stop-color="#2fc7ff"/>
      <stop offset="100%" stop-color="#2f8bff"/>
    </linearGradient>
    <filter id="glow" x="-40%" y="-40%" width="180%" height="180%">
      <feGaussianBlur stdDeviation="1.2" result="b"/>
      <feMerge>
        <feMergeNode in="b"/>
        <feMergeNode in="SourceGraphic"/>
      </feMerge>
    </filter>
  </defs>

  <!-- Icon -->
  <g transform="translate(3 2)" filter="url(#glow)">
    <path d="M30 3C16 3 4 15 4 30c0 8 3 15 8 20l6-6c-4-4-6-9-6-14 0-10 8-18 18-18 4 0 8 1 11 3l5-6C42 5 36 3 30 3z" fill="url(#ring)"/>
    <path d="M54 17l-6 6c2 3 3 7 3 10h8c0-6-2-11-5-16z" fill="url(#ring)"/>
    <path d="M7 46C11 55 20 61 30 61c12 0 23-8 27-19h-9c-3 6-10 10-18 10-6 0-12-3-15-7l-8 1z" fill="url(#ring)"/>

    <rect x="20" y="34" width="5" height="14" rx="1.5" fill="#27adff"/>
    <rect x="28" y="30" width="5" height="18" rx="1.5" fill="#38bcff"/>
    <rect x="36" y="25" width="5" height="23" rx="1.5" fill="#53d5ff"/>

    <circle cx="26" cy="36" r="2.2" fill="#3ad0ff"/>
    <path d="M12 43L53 9" stroke="url(#arrow)" stroke-width="4" stroke-linecap="round"/>
    <path d="M50 8l9-2-2 9z" fill="url(#arrow)"/>
  </g>

  <!-- Logotype -->
  <text x="82" y="30" fill="#eaf0ff" font-family="Inter, system-ui, -apple-system, Segoe UI, Roboto, Arial, sans-serif" font-size="16" font-weight="800" letter-spacing="-0.01em">Systemy &amp; Wynik</text>
  <text x="82" y="56" fill="url(#line2)" font-family="Inter, system-ui, -apple-system, Segoe UI, Roboto, Arial, sans-serif" font-size="28" font-weight="800" letter-spacing="-0.02em">SystemPilot</text>
</svg>
